<svg width="32" height="32" viewBox="0 0 32 32" fill="none" xmlns="http://www.w3.org/2000/svg">
  <rect width="32" height="32" rx="4" fill="white"/>
  <g transform="translate(4, 3) scale(0.3)" fill="black">
    <path d="M39.6001 90L52.1001 82.7L39.6001 75.5L27.1001 82.7L39.6001 90Z"/>
    <path d="M2.0001 68.3L14.6001 75.5L27.1001 68.3L14.6001 61L2.0001 68.3Z"/>
    <path d="M77.2002 68.3L64.6002 61L52.1002 68.3L64.6002 75.5L77.2002 68.3Z"/>
    <path d="M39.6001 61L52.1001 53.8L39.6001 46.6L27.1001 53.8L39.6001 61Z"/>
    <path d="M39.6001 75.5L52.1001 68.3L39.6001 61L27.1001 68.3L39.6001 75.5Z"/>
    <path d="M37.6001 43.3L37.6001 28.9L25.1001 36.1L25.1001 50.5L37.6001 43.3Z"/>
    <path d="M12.6001 43.3L0.0001 50.5L0 65L12.6001 57.8L12.6001 43.3Z"/>
    <path d="M37.6001 0L25.1001 7.2L25.1001 21.6L37.6001 14.4L37.6001 0Z"/>
    <path d="M0 21.6L0 36.1L12.6001 28.9L12.6001 14.4L0 21.6Z"/>
    <path d="M25.1001 21.6L12.6001 28.9L12.6001 43.3L25.1001 36.1L25.1001 21.6Z"/>
    <path d="M41.6001 43.3L54.1001 50.5L54.1001 36.1L41.6001 28.9L41.6001 43.3Z"/>
    <path d="M79.2002 65L79.2002 50.5L66.6002 43.3L66.6002 57.8L79.2002 65Z"/>
    <path d="M54.1001 7.2L41.6001 0L41.6001 14.4L54.1001 21.6L54.1001 7.2Z"/>
    <path d="M79.2002 21.6L66.6002 14.4L66.6002 28.9L79.2002 36.1L79.2002 21.6Z"/>
    <path d="M66.6001 43.3L66.6001 28.9L54.1001 21.6L54.1001 36.1L66.6001 43.3Z"/>
  </g>
</svg>
